<svg xmlns="http://www.w3.org/2000/svg" viewBox="0 0 17.28 26"><defs><style>.cls-1{fill:#bd242b;}.cls-2{fill:#ac262b;}</style></defs><title>locationPin</title><g id="Object"><path class="cls-1" d="M9,0A8.64,8.64,0,0,0,.36,8.64C.36,13.41,9,26,9,26s8.64-12.59,8.64-17.36A8.64,8.64,0,0,0,9,0ZM9,12.32a4.06,4.06,0,1,1,4.06-4.06A4.06,4.06,0,0,1,9,12.32ZM9.35,1.89A7.51,7.51,0,0,0,1.84,9.4a7.42,7.42,0,0,0,1,3.74A7.51,7.51,0,1,1,15.3,4.82,7.51,7.51,0,0,0,9.35,1.89Z" transform="translate(-0.36)"/><path class="cls-2" d="M7,22.7c1.18,2,2,3.3,2,3.3s8.64-12.59,8.64-17.36c0-.25,0-.5,0-.74a21,21,0,0,1-1.41,3.85c-1.64,3.4-4.05,5.58-6.63,8.35C8.73,21,7.87,21.86,7,22.7Z" transform="translate(-0.36)"/></g></svg>